<svg width="145" height="204" viewBox="0 0 145 204" fill="none" xmlns="http://www.w3.org/2000/svg">
<path d="M19.6591 0.81818L31.5909 41.8409H32.0455L43.9773 0.81818H61.8182L42.6136 59H21.0227L1.81818 0.81818H19.6591ZM65.8219 59V0.81818H90.9355C95.2537 0.81818 99.0321 1.60417 102.271 3.17614C105.509 4.74811 108.028 7.01136 109.828 9.96591C111.627 12.9205 112.526 16.4621 112.526 20.5909C112.526 24.7576 111.598 28.2708 109.742 31.1307C107.905 33.9905 105.32 36.1496 101.987 37.608C98.6723 39.0663 94.7991 39.7955 90.3673 39.7955H75.3673V27.5227H87.1855C89.0416 27.5227 90.623 27.2955 91.9298 26.8409C93.2556 26.3674 94.2688 25.6193 94.9696 24.5966C95.6893 23.5739 96.0492 22.2386 96.0492 20.5909C96.0492 18.9242 95.6893 17.5701 94.9696 16.5284C94.2688 15.4678 93.2556 14.6913 91.9298 14.1989C90.623 13.6875 89.0416 13.4318 87.1855 13.4318H81.6173V59H65.8219ZM99.9128 32.2955L114.458 59H97.2992L83.0946 32.2955H99.9128Z" fill="#ECECEC"/>
<path d="M20.6818 70.8182L30.2273 87.75H30.6818L40.3409 70.8182H57.9545L40.5682 99.9091L58.6364 129H40.5682L30.6818 111.727H30.2273L20.3409 129H2.38636L20.2273 99.9091L2.95455 70.8182H20.6818ZM78.9611 70.8182V129H63.1656V70.8182H78.9611ZM100.756 70.8182L112.688 111.841H113.142L125.074 70.8182H142.915L123.711 129H102.12L82.9151 70.8182H100.756Z" fill="black"/>
<path d="M26.25 177.409H38.5227L42.9545 182.977L50.4545 191.5L60.2273 203.318H46.25L39.3182 195.25L34.6591 188.545L26.25 177.409ZM60.1136 169.909C60.1136 176.386 58.8542 181.85 56.3352 186.301C53.8163 190.733 50.4167 194.095 46.1364 196.386C41.8561 198.659 37.0833 199.795 31.8182 199.795C26.5152 199.795 21.7235 198.65 17.4432 196.358C13.1818 194.047 9.79167 190.676 7.27273 186.244C4.77273 181.794 3.52273 176.348 3.52273 169.909C3.52273 163.432 4.77273 157.977 7.27273 153.545C9.79167 149.095 13.1818 145.733 17.4432 143.46C21.7235 141.169 26.5152 140.023 31.8182 140.023C37.0833 140.023 41.8561 141.169 46.1364 143.46C50.4167 145.733 53.8163 149.095 56.3352 153.545C58.8542 157.977 60.1136 163.432 60.1136 169.909ZM43.8636 169.909C43.8636 166.424 43.3996 163.489 42.4716 161.102C41.5625 158.697 40.2083 156.879 38.4091 155.648C36.6288 154.398 34.4318 153.773 31.8182 153.773C29.2045 153.773 26.9981 154.398 25.1989 155.648C23.4186 156.879 22.0644 158.697 21.1364 161.102C20.2273 163.489 19.7727 166.424 19.7727 169.909C19.7727 173.394 20.2273 176.339 21.1364 178.744C22.0644 181.131 23.4186 182.949 25.1989 184.199C26.9981 185.43 29.2045 186.045 31.8182 186.045C34.4318 186.045 36.6288 185.43 38.4091 184.199C40.2083 182.949 41.5625 181.131 42.4716 178.744C43.3996 176.339 43.8636 173.394 43.8636 169.909ZM65.9 199V140.818H91.0136C95.3318 140.818 99.1102 141.604 102.349 143.176C105.588 144.748 108.106 147.011 109.906 149.966C111.705 152.92 112.605 156.462 112.605 160.591C112.605 164.758 111.677 168.271 109.82 171.131C107.983 173.991 105.398 176.15 102.065 177.608C98.7504 179.066 94.8773 179.795 90.4455 179.795H75.4455V167.523H87.2636C89.1197 167.523 90.7011 167.295 92.008 166.841C93.3337 166.367 94.347 165.619 95.0477 164.597C95.7674 163.574 96.1273 162.239 96.1273 160.591C96.1273 158.924 95.7674 157.57 95.0477 156.528C94.347 155.468 93.3337 154.691 92.008 154.199C90.7011 153.687 89.1197 153.432 87.2636 153.432H81.6955V199H65.9ZM99.9909 172.295L114.536 199H97.3773L83.1727 172.295H99.9909Z" fill="black"/>
</svg>
